<svg width="1325" height="1342" viewBox="0 0 1325 1342" fill="none" xmlns="http://www.w3.org/2000/svg">
<rect width="1325" height="1342" fill="#010101"/>
<g filter="url(#filter0_d_50_280)">
<path d="M959.292 250V348.583M910 299.292H1008.58" stroke="url(#paint0_linear_50_280)" stroke-width="59" stroke-linecap="round" stroke-linejoin="round"/>
</g>
<path d="M272.68 1190.68L279.16 1191.96C277.92 1198.68 272.52 1202.6 265.64 1202.6C257.68 1202.6 251.4 1196.48 251.4 1188.6C251.4 1180.76 257.68 1174.6 265.64 1174.6C272.24 1174.6 277.84 1178.52 279.12 1184.88L272.64 1186.4C271.8 1182.52 269.08 1180.64 265.64 1180.64C261.4 1180.64 258 1184.04 258 1188.6C258 1193.16 261.4 1196.6 265.64 1196.6C269.04 1196.6 271.76 1194.68 272.68 1190.68ZM302.947 1181.92V1202H296.547V1200.08C295.027 1201.68 292.907 1202.6 290.387 1202.6C285.707 1202.6 282.587 1199.28 282.587 1194.24V1181.92H288.947V1192.88C288.947 1195.24 290.347 1196.84 292.387 1196.84C294.907 1196.84 296.547 1195.12 296.547 1191.24V1181.92H302.947ZM311.113 1172.36C313.273 1172.36 314.833 1174.04 314.833 1176C314.833 1178.04 313.273 1179.56 311.113 1179.56C308.953 1179.56 307.433 1178.04 307.433 1176C307.433 1174.04 308.953 1172.36 311.113 1172.36ZM314.313 1202H307.913V1181.92H314.313V1202ZM340.393 1173.2V1202H333.993V1200.4C332.433 1201.8 330.353 1202.6 327.753 1202.6C322.433 1202.6 317.953 1198.32 317.953 1191.96C317.953 1185.64 322.433 1181.32 327.753 1181.32C330.353 1181.32 332.433 1182.12 333.993 1183.52V1173.2H340.393ZM329.073 1197.16C331.673 1197.16 333.993 1195.08 333.993 1191.96C333.993 1188.88 331.673 1186.76 329.073 1186.76C326.273 1186.76 324.233 1188.88 324.233 1191.96C324.233 1195.08 326.273 1197.16 329.073 1197.16ZM366.135 1181.92V1202H359.735V1200.4C358.175 1201.8 356.095 1202.6 353.495 1202.6C348.175 1202.6 343.695 1198.32 343.695 1191.96C343.695 1185.64 348.175 1181.32 353.495 1181.32C356.095 1181.32 358.175 1182.12 359.735 1183.52V1181.92H366.135ZM354.815 1197.16C357.415 1197.16 359.735 1195.08 359.735 1191.96C359.735 1188.88 357.415 1186.76 354.815 1186.76C352.015 1186.76 349.975 1188.88 349.975 1191.96C349.975 1195.08 352.015 1197.16 354.815 1197.16ZM384.078 1181.64C384.638 1181.64 385.038 1181.68 385.518 1181.8L385.238 1188.2H384.078C379.598 1188.2 377.158 1190.52 377.158 1195.72V1202H370.758V1181.92H377.158V1185.76C378.598 1183.36 380.798 1181.64 384.078 1181.64ZM407.155 1197C409.195 1197 410.835 1195.92 411.515 1193.48L417.395 1194.76C416.395 1199.52 412.155 1202.6 407.155 1202.6C401.155 1202.6 396.195 1198.32 396.195 1191.96C396.195 1185.64 401.155 1181.32 407.155 1181.32C412.035 1181.32 416.275 1184.32 417.395 1189.04L411.395 1190.48C410.835 1188.04 409.195 1186.92 407.155 1186.92C404.275 1186.92 402.355 1189.04 402.355 1191.96C402.355 1194.92 404.275 1197 407.155 1197ZM430.518 1181.4C436.478 1181.4 441.518 1185.64 441.518 1191.96C441.518 1198.32 436.478 1202.56 430.518 1202.56C424.438 1202.56 419.398 1198.32 419.398 1191.96C419.398 1185.64 424.438 1181.4 430.518 1181.4ZM430.518 1197.16C432.998 1197.16 435.358 1195.12 435.358 1191.96C435.358 1188.84 432.998 1186.76 430.518 1186.76C427.918 1186.76 425.558 1188.84 425.558 1191.96C425.558 1195.12 427.918 1197.16 430.518 1197.16ZM470.82 1181.32C475.1 1181.32 478.5 1184.56 478.5 1189.44V1202H472.14V1190.8C472.14 1188.52 470.66 1187.08 468.78 1187.08C466.42 1187.08 464.86 1188.8 464.86 1192.16V1202H458.46V1190.8C458.46 1188.52 456.98 1187.08 455.06 1187.08C452.74 1187.08 451.22 1188.8 451.22 1192.16V1202H444.82V1181.92H451.22V1183.76C452.58 1182.24 454.54 1181.32 457.14 1181.32C459.94 1181.32 462.34 1182.52 463.7 1184.72C465.3 1182.64 467.7 1181.32 470.82 1181.32ZM501.804 1197C503.844 1197 505.484 1195.92 506.164 1193.48L512.044 1194.76C511.044 1199.52 506.804 1202.6 501.804 1202.6C495.804 1202.6 490.844 1198.32 490.844 1191.96C490.844 1185.64 495.804 1181.32 501.804 1181.32C506.684 1181.32 510.924 1184.32 512.044 1189.04L506.044 1190.48C505.484 1188.04 503.844 1186.92 501.804 1186.92C498.924 1186.92 497.004 1189.04 497.004 1191.96C497.004 1194.92 498.924 1197 501.804 1197ZM536.487 1181.92V1202H530.087V1200.4C528.527 1201.8 526.447 1202.6 523.847 1202.6C518.527 1202.6 514.047 1198.32 514.047 1191.96C514.047 1185.64 518.527 1181.32 523.847 1181.32C526.447 1181.32 528.527 1182.12 530.087 1183.52V1181.92H536.487ZM525.167 1197.16C527.767 1197.16 530.087 1195.08 530.087 1191.96C530.087 1188.88 527.767 1186.76 525.167 1186.76C522.367 1186.76 520.327 1188.88 520.327 1191.96C520.327 1195.08 522.367 1197.16 525.167 1197.16ZM554.429 1181.64C554.989 1181.64 555.389 1181.68 555.869 1181.8L555.589 1188.2H554.429C549.949 1188.2 547.509 1190.52 547.509 1195.72V1202H541.109V1181.92H547.509V1185.76C548.949 1183.36 551.149 1181.64 554.429 1181.64ZM562.09 1172.36C564.25 1172.36 565.81 1174.04 565.81 1176C565.81 1178.04 564.25 1179.56 562.09 1179.56C559.93 1179.56 558.41 1178.04 558.41 1176C558.41 1174.04 559.93 1172.36 562.09 1172.36ZM565.29 1202H558.89V1181.92H565.29V1202ZM582.81 1181.32C587.49 1181.32 590.61 1184.64 590.61 1189.68V1202H584.25V1191.04C584.25 1188.68 582.85 1187.08 580.81 1187.08C578.29 1187.08 576.65 1188.8 576.65 1192.68V1202H570.25V1181.92H576.65V1183.84C578.17 1182.24 580.29 1181.32 582.81 1181.32ZM607.576 1181.32C612.216 1181.32 615.336 1184.64 615.336 1189.68V1202H608.976V1191.04C608.976 1188.68 607.576 1187.08 605.496 1187.08C603.016 1187.08 601.376 1188.8 601.376 1192.68V1202H594.976V1173.2H601.376V1183.84C602.936 1182.24 605.016 1181.32 607.576 1181.32ZM629.542 1181.4C635.502 1181.4 640.542 1185.64 640.542 1191.96C640.542 1198.32 635.502 1202.56 629.542 1202.56C623.462 1202.56 618.422 1198.32 618.422 1191.96C618.422 1185.64 623.462 1181.4 629.542 1181.4ZM629.542 1197.16C632.022 1197.16 634.382 1195.12 634.382 1191.96C634.382 1188.84 632.022 1186.76 629.542 1186.76C626.942 1186.76 624.582 1188.84 624.582 1191.96C624.582 1195.12 626.942 1197.16 629.542 1197.16ZM645.39 1207.28H640.55L642.91 1195.76H649.99V1195.92L645.39 1207.28ZM675.913 1181.64C676.473 1181.64 676.873 1181.68 677.353 1181.8L677.073 1188.2H675.913C671.433 1188.2 668.993 1190.52 668.993 1195.72V1202H662.593V1181.92H668.993V1185.76C670.433 1183.36 672.633 1181.64 675.913 1181.64ZM699.617 1191.96V1193.6H684.897C685.417 1196 687.057 1197.48 689.217 1197.48C690.697 1197.48 692.417 1197.12 693.497 1195.16L699.177 1196.32C697.457 1200.56 693.817 1202.6 689.217 1202.6C683.417 1202.6 678.617 1198.32 678.617 1191.96C678.617 1185.64 683.417 1181.32 689.257 1181.32C694.937 1181.32 699.497 1185.4 699.617 1191.96ZM689.257 1186.52C687.457 1186.52 685.617 1187.64 685.017 1189.68H693.297C692.697 1187.52 691.097 1186.52 689.257 1186.52ZM701.585 1196.76L707.825 1195.48C708.105 1197.2 709.665 1197.84 711.385 1197.84C713.065 1197.84 713.985 1197.12 713.985 1196.24C713.985 1195.56 713.465 1195.04 711.985 1194.76L707.905 1193.96C704.185 1193.28 702.065 1191.28 702.065 1188.12C702.065 1184 705.625 1181.32 710.705 1181.32C715.705 1181.32 719.025 1183.6 719.825 1187.08L713.985 1188.24C713.785 1187 712.585 1185.88 710.625 1185.88C708.905 1185.88 708.345 1186.72 708.345 1187.44C708.345 1188 708.585 1188.56 709.865 1188.84L714.585 1189.8C718.385 1190.6 720.145 1192.88 720.145 1195.84C720.145 1200.28 716.305 1202.6 711.025 1202.6C706.305 1202.6 702.265 1200.88 701.585 1196.76ZM736.171 1181.32C741.491 1181.32 745.971 1185.64 745.971 1191.96C745.971 1198.32 741.491 1202.6 736.171 1202.6C733.571 1202.6 731.491 1201.8 729.931 1200.4V1208.8H723.531V1181.92H729.931V1183.52C731.491 1182.12 733.571 1181.32 736.171 1181.32ZM734.851 1197.16C737.651 1197.16 739.691 1195.08 739.691 1191.96C739.691 1188.88 737.651 1186.76 734.851 1186.76C732.251 1186.76 729.931 1188.88 729.931 1191.96C729.931 1195.08 732.251 1197.16 734.851 1197.16ZM768.953 1191.96V1193.6H754.233C754.753 1196 756.393 1197.48 758.553 1197.48C760.033 1197.48 761.753 1197.12 762.833 1195.16L768.513 1196.32C766.793 1200.56 763.153 1202.6 758.553 1202.6C752.753 1202.6 747.953 1198.32 747.953 1191.96C747.953 1185.64 752.753 1181.32 758.593 1181.32C764.273 1181.32 768.833 1185.4 768.953 1191.96ZM758.593 1186.52C756.793 1186.52 754.953 1187.64 754.353 1189.68H762.633C762.033 1187.52 760.433 1186.52 758.593 1186.52ZM775.801 1172.36C777.961 1172.36 779.521 1174.04 779.521 1176C779.521 1178.04 777.961 1179.56 775.801 1179.56C773.641 1179.56 772.121 1178.04 772.121 1176C772.121 1174.04 773.641 1172.36 775.801 1172.36ZM779.001 1202H772.601V1181.92H779.001V1202ZM797.361 1196.08L798.841 1201.12C797.281 1201.96 795.641 1202.6 793.361 1202.6C788.361 1202.6 785.361 1199.88 785.361 1194.6V1187H781.721V1181.92H785.361V1176H791.761V1181.92H797.681V1187H791.761V1193.96C791.761 1196.04 792.761 1196.88 794.441 1196.88C795.321 1196.88 796.521 1196.56 797.361 1196.08ZM810.675 1181.4C816.635 1181.4 821.675 1185.64 821.675 1191.96C821.675 1198.32 816.635 1202.56 810.675 1202.56C804.595 1202.56 799.555 1198.32 799.555 1191.96C799.555 1185.64 804.595 1181.4 810.675 1181.4ZM810.675 1197.16C813.155 1197.16 815.515 1195.12 815.515 1191.96C815.515 1188.84 813.155 1186.76 810.675 1186.76C808.075 1186.76 805.715 1188.84 805.715 1191.96C805.715 1195.12 808.075 1197.16 810.675 1197.16ZM853.953 1191.96V1193.6H839.233C839.753 1196 841.393 1197.48 843.553 1197.48C845.033 1197.48 846.753 1197.12 847.833 1195.16L853.513 1196.32C851.793 1200.56 848.153 1202.6 843.553 1202.6C837.753 1202.6 832.953 1198.32 832.953 1191.96C832.953 1185.64 837.753 1181.32 843.593 1181.32C849.273 1181.32 853.833 1185.4 853.953 1191.96ZM843.593 1186.52C841.793 1186.52 839.953 1187.64 839.353 1189.68H847.633C847.033 1187.52 845.433 1186.52 843.593 1186.52ZM887.698 1173.2V1202H881.298V1200.4C879.738 1201.8 877.658 1202.6 875.058 1202.6C869.738 1202.6 865.258 1198.32 865.258 1191.96C865.258 1185.64 869.738 1181.32 875.058 1181.32C877.658 1181.32 879.738 1182.12 881.298 1183.52V1173.2H887.698ZM876.378 1197.16C878.978 1197.16 881.298 1195.08 881.298 1191.96C881.298 1188.88 878.978 1186.76 876.378 1186.76C873.578 1186.76 871.538 1188.88 871.538 1191.96C871.538 1195.08 873.578 1197.16 876.378 1197.16ZM895.84 1172.36C898 1172.36 899.56 1174.04 899.56 1176C899.56 1178.04 898 1179.56 895.84 1179.56C893.68 1179.56 892.16 1178.04 892.16 1176C892.16 1174.04 893.68 1172.36 895.84 1172.36ZM899.04 1202H892.64V1181.92H899.04V1202ZM924.68 1181.92V1200C924.68 1206.2 919.96 1209.6 913.44 1209.6C908.84 1209.6 905.32 1208 903.36 1204.76L908.68 1201.88C910.2 1203.68 911.32 1204.36 913.4 1204.36C916.32 1204.36 918.4 1202.64 918.4 1199.48V1198.92C916.96 1200.16 914.96 1200.84 912.36 1200.84C907.12 1200.84 902.68 1196.68 902.68 1191C902.68 1185.44 907.12 1181.32 912.36 1181.32C914.96 1181.32 916.96 1182 918.4 1183.24V1181.92H924.68ZM913.72 1195.6C916.28 1195.6 918.4 1193.68 918.4 1191C918.4 1188.32 916.28 1186.44 913.72 1186.44C910.92 1186.44 908.92 1188.32 908.92 1191C908.92 1193.68 910.92 1195.6 913.72 1195.6ZM941.911 1181.32C946.591 1181.32 949.711 1184.64 949.711 1189.68V1202H943.351V1191.04C943.351 1188.68 941.951 1187.08 939.911 1187.08C937.391 1187.08 935.751 1188.8 935.751 1192.68V1202H929.351V1181.92H935.751V1183.84C937.271 1182.24 939.391 1181.32 941.911 1181.32ZM957.598 1172.36C959.758 1172.36 961.318 1174.04 961.318 1176C961.318 1178.04 959.758 1179.56 957.598 1179.56C955.438 1179.56 953.918 1178.04 953.918 1176C953.918 1174.04 955.438 1172.36 957.598 1172.36ZM960.798 1202H954.398V1181.92H960.798V1202ZM986.878 1173.2V1202H980.478V1200.4C978.918 1201.8 976.838 1202.6 974.238 1202.6C968.918 1202.6 964.438 1198.32 964.438 1191.96C964.438 1185.64 968.918 1181.32 974.238 1181.32C976.838 1181.32 978.918 1182.12 980.478 1183.52V1173.2H986.878ZM975.558 1197.16C978.158 1197.16 980.478 1195.08 980.478 1191.96C980.478 1188.88 978.158 1186.76 975.558 1186.76C972.758 1186.76 970.718 1188.88 970.718 1191.96C970.718 1195.08 972.758 1197.16 975.558 1197.16ZM1012.62 1181.92V1202H1006.22V1200.4C1004.66 1201.8 1002.58 1202.6 999.98 1202.6C994.66 1202.6 990.18 1198.32 990.18 1191.96C990.18 1185.64 994.66 1181.32 999.98 1181.32C1002.58 1181.32 1004.66 1182.12 1006.22 1183.52V1181.92H1012.62ZM1001.3 1197.16C1003.9 1197.16 1006.22 1195.08 1006.22 1191.96C1006.22 1188.88 1003.9 1186.76 1001.3 1186.76C998.5 1186.76 996.46 1188.88 996.46 1191.96C996.46 1195.08 998.5 1197.16 1001.3 1197.16ZM1038.36 1173.2V1202H1031.96V1200.4C1030.4 1201.8 1028.32 1202.6 1025.72 1202.6C1020.4 1202.6 1015.92 1198.32 1015.92 1191.96C1015.92 1185.64 1020.4 1181.32 1025.72 1181.32C1028.32 1181.32 1030.4 1182.12 1031.96 1183.52V1173.2H1038.36ZM1027.04 1197.16C1029.64 1197.16 1031.96 1195.08 1031.96 1191.96C1031.96 1188.88 1029.64 1186.76 1027.04 1186.76C1024.24 1186.76 1022.2 1188.88 1022.2 1191.96C1022.2 1195.08 1024.24 1197.16 1027.04 1197.16ZM1062.66 1191.96V1193.6H1047.94C1048.46 1196 1050.1 1197.48 1052.26 1197.48C1053.74 1197.48 1055.46 1197.12 1056.54 1195.16L1062.22 1196.32C1060.5 1200.56 1056.86 1202.6 1052.26 1202.6C1046.46 1202.6 1041.66 1198.32 1041.66 1191.96C1041.66 1185.64 1046.46 1181.32 1052.3 1181.32C1057.98 1181.32 1062.54 1185.4 1062.66 1191.96ZM1052.3 1186.52C1050.5 1186.52 1048.66 1187.64 1048.06 1189.68H1056.34C1055.74 1187.52 1054.14 1186.52 1052.3 1186.52ZM1068.32 1195C1070.44 1195 1072 1196.68 1072 1198.6C1072 1200.64 1070.44 1202.2 1068.32 1202.2C1066.2 1202.2 1064.68 1200.64 1064.68 1198.6C1064.68 1196.68 1066.2 1195 1068.32 1195Z" fill="url(#paint1_linear_50_280)"/>
<path d="M250.686 723C277.376 723 300.347 741.011 310.516 765.688C367.427 903.789 503.361 1001 662 1001C818.006 1001 952.053 906.989 1010.58 772.529C1021.07 748.433 1043.81 731 1070.09 731C1108.33 731 1136.76 766.691 1122.76 802.27C1050.42 985.98 871.396 1116 662 1116C449.192 1116 267.75 981.708 197.793 793.246C184.667 757.883 212.965 723 250.686 723ZM1085.77 365.038C1117.85 418.042 1140.27 477.548 1150.58 541.115C1155.85 573.541 1129.26 601 1096.41 601C1065.62 601 1040.7 576.727 1034.7 546.532C1024.25 493.919 1002.93 445.218 973.191 402.865L1085.77 365.038ZM662 126C749.006 126 830.768 148.45 901.812 187.869L831.598 280.854C780.546 255.35 722.949 241 662 241C480.048 241 327.964 368.882 290.725 539.67C284.25 569.366 259.49 593 229.096 593C195.799 593 169.02 564.879 174.96 532.116C216.835 301.154 418.963 126 662 126Z" fill="url(#paint2_linear_50_280)"/>
<path d="M672.689 819.098C670.247 821.536 666.339 823 662.432 823C658.524 823 654.615 821.537 651.685 818.61L543.467 710H781.946L672.689 819.098ZM689.298 456.197C736.192 409.371 807.999 404.982 856.358 446.442C882.736 467.416 898.856 499.121 900.81 533.753C902.12 556.988 896.614 580.003 885.473 600H439.845C428.907 580.576 423.397 557.982 424.053 534.728C426.007 500.097 442.126 467.416 468.504 444.978C490.485 427.419 516.864 418.151 544.707 418.151C578.412 418.151 611.629 431.809 635.564 455.71L651.93 472.051C657.748 477.86 667.158 477.903 673.029 472.147L689.298 456.197Z" fill="url(#paint3_linear_50_280)"/>
<g filter="url(#filter1_d_50_280)">
<path d="M253.712 628.12H270.672C284.816 628.12 294.16 636.824 294.16 649.56C294.16 662.296 284.816 671 270.672 671H253.712V628.12ZM264.272 661.848H270.288C278.288 661.848 283.536 656.984 283.536 649.56C283.536 642.136 278.288 637.272 270.288 637.272H264.272V661.848ZM321.463 627.16C334.263 627.16 344.311 637.08 344.311 649.624C344.311 662.104 334.263 671.96 321.463 671.96C308.663 671.96 298.615 662.104 298.615 649.624C298.615 637.08 308.663 627.16 321.463 627.16ZM321.463 662.296C328.439 662.296 333.751 656.92 333.751 649.624C333.751 642.264 328.439 636.824 321.463 636.824C314.487 636.824 309.175 642.264 309.175 649.624C309.175 656.92 314.487 662.296 321.463 662.296ZM399.747 628.12V671H389.507V648.152L377.475 671H372.611L360.515 648.024V671H350.275V628.12H360.643L375.043 655.32L389.443 628.12H399.747ZM445.486 628.12V651.672C445.486 663.96 437.87 671.96 426.478 671.96C414.83 671.96 407.022 663.96 407.022 651.672V628.12H417.582V651.672C417.582 658.2 421.102 662.232 426.478 662.232C431.534 662.232 434.926 658.2 434.926 651.672V628.12H445.486ZM469.607 627.16C478.951 627.16 485.735 631.768 487.335 639.576L476.967 641.688C476.199 637.656 472.871 635.672 469.479 635.672C465.958 635.672 463.719 637.592 463.719 640.024C463.719 641.752 464.487 643.032 467.175 643.608L476.071 645.592C483.495 647.256 487.847 651.288 487.847 658.072C487.847 667.224 479.719 671.96 470.183 671.96C460.519 671.96 452.583 667.352 451.431 658.968L462.311 656.856C463.399 661.272 466.471 663.192 470.759 663.192C474.727 663.192 477.095 661.4 477.095 658.776C477.095 656.856 476.199 655.64 473.127 655L464.167 653.08C458.023 651.672 452.647 648.472 452.647 640.664C452.647 632.344 459.559 627.16 469.607 627.16ZM541.601 652.888L551.969 654.936C549.985 665.688 541.345 671.96 530.337 671.96C517.601 671.96 507.553 662.168 507.553 649.56C507.553 637.016 517.601 627.16 530.337 627.16C540.897 627.16 549.857 633.432 551.905 643.608L541.537 646.04C540.193 639.832 535.841 636.824 530.337 636.824C523.553 636.824 518.113 642.264 518.113 649.56C518.113 656.856 523.553 662.36 530.337 662.36C535.777 662.36 540.129 659.288 541.601 652.888ZM596.236 628.12V651.672C596.236 663.96 588.62 671.96 577.228 671.96C565.58 671.96 557.772 663.96 557.772 651.672V628.12H568.332V651.672C568.332 658.2 571.852 662.232 577.228 662.232C582.284 662.232 585.676 658.2 585.676 651.672V628.12H596.236ZM614.085 671H603.525V628.12H614.085V671ZM621.525 628.12H638.485C652.629 628.12 661.973 636.824 661.973 649.56C661.973 662.296 652.629 671 638.485 671H621.525V628.12ZM632.085 661.848H638.101C646.101 661.848 651.349 656.984 651.349 649.56C651.349 642.136 646.101 637.272 638.101 637.272H632.085V661.848ZM709.156 671H697.892L694.884 663.192H676.836L673.828 671H662.5L680.42 628.12H691.236L709.156 671ZM691.364 654.104L685.86 640.024L680.42 654.104H691.364ZM752.133 671H739.397L726.469 656.28H723.397V671H712.837V628.12H734.533C743.813 628.12 749.957 633.752 749.957 642.136C749.957 649.176 745.605 654.232 738.693 655.768L752.133 671ZM723.397 647.448H733.381C737.157 647.448 739.589 645.4 739.589 642.264C739.589 639.192 737.157 637.144 733.381 637.144H723.397V647.448ZM804.558 661.912V671H771.15V628.12H804.366V637.208H781.71V645.272H802.51V653.848H781.71V661.912H804.558ZM860.622 628.12V671H850.382V648.152L838.35 671H833.486L821.39 648.024V671H811.15V628.12H821.518L835.918 655.32L850.318 628.12H860.622ZM915.476 652.888L925.844 654.936C923.86 665.688 915.22 671.96 904.212 671.96C891.476 671.96 881.428 662.168 881.428 649.56C881.428 637.016 891.476 627.16 904.212 627.16C914.772 627.16 923.732 633.432 925.78 643.608L915.412 646.04C914.068 639.832 909.716 636.824 904.212 636.824C897.428 636.824 891.988 642.264 891.988 649.56C891.988 656.856 897.428 662.36 904.212 662.36C909.652 662.36 914.004 659.288 915.476 652.888ZM973.031 671H961.767L958.759 663.192H940.711L937.703 671H926.375L944.295 628.12H955.111L973.031 671ZM955.239 654.104L949.735 640.024L944.295 654.104H955.239ZM992.482 627.16C1001.83 627.16 1008.61 631.768 1010.21 639.576L999.842 641.688C999.074 637.656 995.746 635.672 992.354 635.672C988.833 635.672 986.594 637.592 986.594 640.024C986.594 641.752 987.362 643.032 990.05 643.608L998.946 645.592C1006.37 647.256 1010.72 651.288 1010.72 658.072C1010.72 667.224 1002.59 671.96 993.058 671.96C983.394 671.96 975.458 667.352 974.306 658.968L985.186 656.856C986.274 661.272 989.346 663.192 993.634 663.192C997.602 663.192 999.97 661.4 999.97 658.776C999.97 656.856 999.074 655.64 996.002 655L987.042 653.08C980.898 651.672 975.522 648.472 975.522 640.664C975.522 632.344 982.434 627.16 992.482 627.16ZM1059.66 671H1048.39L1045.38 663.192H1027.34L1024.33 671H1013L1030.92 628.12H1041.74L1059.66 671ZM1041.86 654.104L1036.36 640.024L1030.92 654.104H1041.86Z" fill="url(#paint4_linear_50_280)"/>
</g>
<defs>
<filter id="filter0_d_50_280" x="876.5" y="220.5" width="165.583" height="165.583" filterUnits="userSpaceOnUse" color-interpolation-filters="sRGB">
<feFlood flood-opacity="0" result="BackgroundImageFix"/>
<feColorMatrix in="SourceAlpha" type="matrix" values="0 0 0 0 0 0 0 0 0 0 0 0 0 0 0 0 0 0 127 0" result="hardAlpha"/>
<feOffset dy="4"/>
<feGaussianBlur stdDeviation="2"/>
<feComposite in2="hardAlpha" operator="out"/>
<feColorMatrix type="matrix" values="0 0 0 0 0.776471 0 0 0 0 0.670588 0 0 0 0 0.392157 0 0 0 1 0"/>
<feBlend mode="normal" in2="BackgroundImageFix" result="effect1_dropShadow_50_280"/>
<feBlend mode="normal" in="SourceGraphic" in2="effect1_dropShadow_50_280" result="shape"/>
</filter>
<filter id="filter1_d_50_280" x="249.712" y="627.16" width="813.944" height="52.7999" filterUnits="userSpaceOnUse" color-interpolation-filters="sRGB">
<feFlood flood-opacity="0" result="BackgroundImageFix"/>
<feColorMatrix in="SourceAlpha" type="matrix" values="0 0 0 0 0 0 0 0 0 0 0 0 0 0 0 0 0 0 127 0" result="hardAlpha"/>
<feOffset dy="4"/>
<feGaussianBlur stdDeviation="2"/>
<feComposite in2="hardAlpha" operator="out"/>
<feColorMatrix type="matrix" values="0 0 0 0 0 0 0 0 0 0 0 0 0 0 0 0 0 0 0.25 0"/>
<feBlend mode="normal" in2="BackgroundImageFix" result="effect1_dropShadow_50_280"/>
<feBlend mode="normal" in="SourceGraphic" in2="effect1_dropShadow_50_280" result="shape"/>
</filter>
<linearGradient id="paint0_linear_50_280" x1="959.292" y1="250" x2="959.292" y2="348.583" gradientUnits="userSpaceOnUse">
<stop stop-color="#F4E999"/>
<stop offset="1" stop-color="#514225"/>
</linearGradient>
<linearGradient id="paint1_linear_50_280" x1="250" y1="1189" x2="1074" y2="1189" gradientUnits="userSpaceOnUse">
<stop stop-color="#C6AB64"/>
<stop offset="1" stop-color="#A47C3E"/>
</linearGradient>
<linearGradient id="paint2_linear_50_280" x1="662.691" y1="126" x2="662.691" y2="1116" gradientUnits="userSpaceOnUse">
<stop stop-color="#A27A3C"/>
<stop offset="0.5" stop-color="#B39250"/>
<stop offset="0.75" stop-color="#BEA05C"/>
<stop offset="1" stop-color="#F3E898"/>
</linearGradient>
<linearGradient id="paint3_linear_50_280" x1="662.5" y1="418" x2="662.5" y2="823" gradientUnits="userSpaceOnUse">
<stop stop-color="#A57D3F"/>
<stop offset="1" stop-color="#E6D88A"/>
</linearGradient>
<linearGradient id="paint4_linear_50_280" x1="250" y1="650" x2="1060" y2="650" gradientUnits="userSpaceOnUse">
<stop stop-color="#B59451"/>
<stop offset="1" stop-color="#CAB36F"/>
</linearGradient>
</defs>
</svg>
